<svg width="70" height="70" viewBox="0 0 70 70" fill="none" xmlns="http://www.w3.org/2000/svg">
<path d="M58.3692 16.7335C17.4426 21.778 -1.57767 51.7692 17.4425 65.2345C23.2006 69.3121 32.6385 70 32.6385 70C29.9327 69.4482 20.0907 67.7857 25.0117 59.222C28.2875 53.5177 43.3536 46.1078 60.3463 42.4674C69.3585 40.5325 70.7439 32.7858 69.7048 26.2287C68.9833 21.6782 66.1111 15.7792 58.3692 16.7335Z" fill="#0C0B73"/>
<path d="M51.2111 5.0601C49.8714 1.36873 39.2337 -0.19492 34.9123 0.0192795C19.2113 0.354858 -0.508548 11.2647 0.0100169 36.7187C0.269299 49.2637 7.65885 57.5674 12.1531 61.4444C12.1603 61.4373 12.1747 61.4302 12.1819 61.423C-1.63931 48.5354 10.1111 28.7761 23.7222 19.8333C41.5119 8.1452 52.5507 8.74432 51.2111 5.0601Z" fill="#0C0B73"/>
<path d="M27.5606 67.447C28.6329 69.5501 38.3706 71.7303 47.9354 67.8956C60.1201 63.0093 63.4091 55.4731 61.869 53.0755C59.1773 48.8833 22.9446 57.1667 27.5606 67.447Z" fill="#0C0B73"/>
</svg>
